<?xml version="1.0" encoding="iso-8859-1"?>
<!-- Uploaded to: SVG Repo, www.svgrepo.com, Generator: SVG Repo Mixer Tools -->
<svg fill="#000000" height="800px" width="800px" version="1.1" id="Layer_1" xmlns="http://www.w3.org/2000/svg" xmlns:xlink="http://www.w3.org/1999/xlink" 
	 viewBox="0 0 512 512" xml:space="preserve">
<g>
	<g>
		<g>
			<path d="M448,34.133H216.03c-3.533-9.907-12.919-17.067-24.03-17.067c-3.371,0-6.571,0.691-9.523,1.877
				C179.533,8.064,169.668,0,157.867,0c-11.802,0-21.658,8.064-24.61,18.944c-2.953-1.186-6.153-1.877-9.523-1.877
				c-14.114,0-25.6,11.486-25.6,25.6V76.8c0,14.114,11.486,25.6,25.6,25.6c3.371,0,6.571-0.691,9.523-1.877
				c2.944,10.88,12.809,18.944,24.61,18.944c11.802,0,21.666-8.064,24.61-18.944c2.953,1.186,6.153,1.877,9.523,1.877
				c11.11,0,20.497-7.159,24.03-17.067H448c14.114,0,25.6-11.486,25.6-25.6S462.114,34.133,448,34.133z M132.267,76.8
				c0,4.702-3.823,8.533-8.533,8.533c-4.71,0-8.533-3.831-8.533-8.533V42.667c0-4.702,3.823-8.533,8.533-8.533
				c4.71,0,8.533,3.831,8.533,8.533V76.8z M200.533,76.8c0,4.702-3.823,8.533-8.533,8.533s-8.533-3.831-8.533-8.533V42.667
				c0-4.702,3.823-8.533,8.533-8.533s8.533,3.831,8.533,8.533V76.8z"/>
			<path d="M132.267,136.533V128c0-4.71-3.814-8.533-8.533-8.533c-4.719,0-8.533,3.823-8.533,8.533v8.533
				c0,4.71,3.814,8.533,8.533,8.533C128.452,145.067,132.267,141.244,132.267,136.533z"/>
			<path d="M166.4,153.6v-8.533c0-4.71-3.814-8.533-8.533-8.533c-4.719,0-8.533,3.823-8.533,8.533v8.533
				c0,4.71,3.814,8.533,8.533,8.533C162.586,162.133,166.4,158.31,166.4,153.6z"/>
			<path d="M200.533,136.533V128c0-4.71-3.814-8.533-8.533-8.533s-8.533,3.823-8.533,8.533v8.533c0,4.71,3.814,8.533,8.533,8.533
				S200.533,141.244,200.533,136.533z"/>
			<polygon points="174.933,380.742 174.933,412.861 200.533,425.661 226.133,412.861 226.133,380.742 200.533,367.942 			"/>
			<polygon points="106.667,380.742 106.667,412.861 132.267,425.661 157.867,412.861 157.867,380.742 132.267,367.942 			"/>
			<polygon points="192,321.009 166.4,308.209 140.8,321.009 140.8,353.128 166.4,365.928 192,353.128 			"/>
			<path d="M260.574,247.467h-0.162h-0.145c-6.827,0-13.235-2.645-18.057-7.441c-2.765-2.748-4.736-6.05-5.99-9.626h6.98
				c14.114,0,25.6-11.486,25.6-25.6s-11.486-25.6-25.6-25.6H89.6c-14.114,0-25.6,11.486-25.6,25.6s11.486,25.6,25.6,25.6h6.98
				c-1.254,3.575-3.226,6.878-5.99,9.626c-4.855,4.83-10.897,7.373-18.202,7.441c-8.687-0.094-17.024,3.413-23.381,9.737
				C42.266,263.91,38.4,273.237,38.4,282.786v192.137C38.4,495.369,55.031,512,75.486,512h181.837
				c20.446,0,37.077-16.631,37.077-37.077V282.786c0-9.549-3.866-18.876-10.607-25.583
				C277.478,250.923,269.235,247.467,260.574,247.467z M89.6,213.333c-4.71,0-8.533-3.831-8.533-8.533
				c0-4.702,3.823-8.533,8.533-8.533h153.6c4.71,0,8.533,3.831,8.533,8.533c0,4.702-3.823,8.533-8.533,8.533h-8.533H98.133H89.6z
				 M243.2,418.133c0,3.234-1.826,6.187-4.719,7.637l-34.133,17.067c-1.195,0.597-2.509,0.896-3.814,0.896s-2.62-0.299-3.814-0.896
				L166.4,427.674l-30.319,15.164c-1.195,0.597-2.509,0.896-3.814,0.896s-2.62-0.299-3.814-0.896l-34.133-17.067
				c-2.893-1.451-4.719-4.403-4.719-7.637v-42.667c0-3.234,1.826-6.187,4.719-7.637l29.414-14.703v-37.393
				c0-3.234,1.826-6.187,4.719-7.637l34.133-17.067c2.398-1.195,5.231-1.195,7.629,0l34.133,17.067
				c2.893,1.451,4.719,4.403,4.719,7.637v37.393l29.414,14.703c2.893,1.451,4.719,4.403,4.719,7.637V418.133z"/>
		</g>
	</g>
</g>
</svg>